{"title":"Vampires Suck.R5.H264.Feel-Free","uid":5874335,"size":992027314,"categoryP":"video","categoryS":"movies","magnet":"?xt=urn:btih:38ec21aacf5e14480181760c58a7ee63eb08c0db&amp;dn=Vampires+Suck.R5.H264.Feel-Free&amp;tr=udp%3A%2F%2Ftracker.openbittorrent.com%3A80&amp;tr=udp%3A%2F%2Fopen.demonii.com%3A1337&amp;tr=udp%3A%2F%2Ftracker.coppersurfer.tk%3A6969&amp;tr=udp%3A%2F%2Fexodus.desync.com%3A6969","seeders":0,"leechers":1,"uploader":"neon","files":-1,"time":1286553413,"description":"Genre:Comedy\nLanguage:English\n &lt;a href=&quot; http://www.imdb.com/title/tt1666186/&quot; rel=&quot;nofollow&quot; target=&quot;_NEW&quot;&gt; http://www.imdb.com/title/tt1666186/&lt;/a&gt;\nSource:DVD5 RUS/Audio-WORKPRINT.VAMPS\nSample:Yes\n\nGeneral\nComplete name :Vampires.Suck.R5.H264.Feel-Free\nFormat : MPEG-4\nFormat profile : Base Media\nCodec ID : isom\nFile size : 938 MiB\nDuration : 1h 15mn\nOverall bit rate : 1 732 Kbps\nVideo #2\nCodec ID : avc1\nCodec ID/Info : Advanced Video Coding\nDuration : 1h 15mn\nBit rate mode : Variable\nBit rate : 1 565 Kbps\nWidth : 640 pixels\nHeight : 352 pixels\nDisplay aspect ratio : 16:9\nFrame rate mode : Constant\nFrame rate : 23.976 fps\nOriginal frame rate : 23.000 fps\nResolution : 24 bits\nColorimetry : 4:2:0\nScan type : Progressive\nBits/(Pixel*Frame) : 0.290\nStream size : 847 MiB (90%)\nAudio #1\nID : 1\nFormat : AAC\nFormat/Info : Advanced Audio Codec\nFormat version : Version 4\nFormat profile : LC\nFormat settings, SBR : No\nCodec ID : 40\nDuration : 1h 15mn\nBit rate mode : Constant\nBit rate : 160 Kbps\nChannel(s) : 2 channels\nChannel positions : L R\nSampling rate : 48.0 KHz\nResolution : 16 bits\nStream size : 86.6 MiB (9%)\n\nPlot:\nspoof of vampire-themed movies, where teenager Becca finds herself torn between two boys. As she and her friends wrestle with a number of different dramas, everything comes to a head at their prom.","torrent":{"xt":"urn:btih:38ec21aacf5e14480181760c58a7ee63eb08c0db","amp;dn":"Vampires+Suck.R5.H264.Feel-Free","amp;tr":["udp%3A%2F%2Ftracker.openbittorrent.com%3A80","udp%3A%2F%2Fopen.demonii.com%3A1337","udp%3A%2F%2Ftracker.coppersurfer.tk%3A6969","udp%3A%2F%2Fexodus.desync.com%3A6969"],"infoHash":"38ec21aacf5e14480181760c58a7ee63eb08c0db","infoHashBuffer":{"type":"Buffer","data":[56,236,33,170,207,94,20,72,1,129,118,12,88,167,238,99,235,8,192,219]},"announce":[],"urlList":[]}}